<svg width="140" height="25" viewBox="0 0 140 25" fill="none" xmlns="http://www.w3.org/2000/svg">
<path d="M29.8311 16.3275C28.2519 16.3275 26.8962 15.993 25.764 15.3238C24.6317 14.6398 23.7602 13.6955 23.1494 12.491C22.5386 11.2717 22.2332 9.86642 22.2332 8.2753C22.2332 6.68418 22.5386 5.27894 23.1494 4.05958C23.7602 2.84022 24.6317 1.88852 25.764 1.20449C26.8962 0.520459 28.2519 0.178443 29.8311 0.178443C31.7083 0.178443 33.2427 0.646856 34.4346 1.58368C35.6413 2.50564 36.3937 3.80679 36.6916 5.48712H33.5407C33.347 4.63952 32.9299 3.97779 32.2893 3.50195C31.6636 3.01123 30.8293 2.76587 29.7864 2.76587C28.3413 2.76587 27.2091 3.25659 26.3897 4.23802C25.5703 5.21946 25.1606 6.56522 25.1606 8.2753C25.1606 9.98538 25.5703 11.3311 26.3897 12.3126C27.2091 13.2791 28.3413 13.7624 29.7864 13.7624C30.8293 13.7624 31.6636 13.5394 32.2893 13.0933C32.9299 12.6323 33.347 12.0003 33.5407 11.1973H36.6916C36.3937 12.8033 35.6413 14.0598 34.4346 14.9669C33.2427 15.874 31.7083 16.3275 29.8311 16.3275Z" fill="#AA0610"/>
<path d="M44.4752 16.3275C43.4025 16.3275 42.4341 16.0822 41.5701 15.5915C40.7209 15.1007 40.043 14.4241 39.5365 13.5617C39.0449 12.6843 38.799 11.6732 38.799 10.5281C38.799 9.38313 39.0523 8.37939 39.5588 7.51692C40.0654 6.63957 40.7432 5.95554 41.5924 5.46482C42.4565 4.9741 43.4249 4.72874 44.4975 4.72874C45.5553 4.72874 46.5087 4.9741 47.3579 5.46482C48.222 5.95554 48.8999 6.63957 49.3915 7.51692C49.898 8.37939 50.1513 9.38313 50.1513 10.5281C50.1513 11.6732 49.898 12.6843 49.3915 13.5617C48.8999 14.4241 48.222 15.1007 47.3579 15.5915C46.4938 16.0822 45.5329 16.3275 44.4752 16.3275ZM44.4752 13.8516C45.2201 13.8516 45.8681 13.5765 46.4193 13.0263C46.9706 12.4613 47.2462 11.6285 47.2462 10.5281C47.2462 9.42774 46.9706 8.60244 46.4193 8.05224C45.8681 7.48717 45.2275 7.20464 44.4975 7.20464C43.7377 7.20464 43.0822 7.48717 42.531 8.05224C41.9947 8.60244 41.7265 9.42774 41.7265 10.5281C41.7265 11.6285 41.9947 12.4613 42.531 13.0263C43.0822 13.5765 43.7303 13.8516 44.4752 13.8516Z" fill="#AA0610"/>
<path d="M57.8039 16.3275C56.761 16.3275 55.8299 16.0747 55.0105 15.5692C54.1911 15.0636 53.5431 14.3721 53.0663 13.4948C52.5896 12.6174 52.3512 11.6211 52.3512 10.5058C52.3512 9.39057 52.5896 8.4017 53.0663 7.53922C53.5431 6.66188 54.1911 5.97784 55.0105 5.48712C55.8299 4.98154 56.761 4.72874 57.8039 4.72874C58.6382 4.72874 59.3682 4.88488 59.9939 5.19716C60.6196 5.50943 61.1261 5.9481 61.5135 6.51317V0H64.3739V16.0599H61.8263L61.5135 14.4762C61.1559 14.9669 60.6792 15.3982 60.0833 15.7699C59.5022 16.1417 58.7425 16.3275 57.8039 16.3275ZM58.4072 13.8293C59.3309 13.8293 60.0833 13.5245 60.6643 12.9148C61.2602 12.2903 61.5582 11.4947 61.5582 10.5281C61.5582 9.56158 61.2602 8.77345 60.6643 8.16377C60.0833 7.53922 59.3309 7.22695 58.4072 7.22695C57.4985 7.22695 56.7461 7.53179 56.1502 8.14147C55.5543 8.75115 55.2563 9.53927 55.2563 10.5058C55.2563 11.4724 55.5543 12.268 56.1502 12.8925C56.7461 13.5171 57.4985 13.8293 58.4072 13.8293Z" fill="#AA0610"/>
<path d="M72.6723 16.3275C71.5549 16.3275 70.5642 16.0896 69.7001 15.6138C68.8361 15.1379 68.1582 14.4688 67.6666 13.6063C67.1749 12.7438 66.9291 11.7475 66.9291 10.6174C66.9291 9.47235 67.1675 8.45374 67.6442 7.56153C68.1358 6.66931 68.8063 5.97784 69.6554 5.48712C70.5195 4.98154 71.5326 4.72874 72.6946 4.72874C73.7822 4.72874 74.7431 4.96667 75.5774 5.44251C76.4117 5.91836 77.0597 6.57265 77.5216 7.40539C77.9983 8.22325 78.2367 9.13777 78.2367 10.149C78.2367 10.3125 78.2292 10.4835 78.2143 10.662C78.2143 10.8404 78.2069 11.0263 78.192 11.2196H69.7672C69.8268 12.0821 70.1247 12.7587 70.6611 13.2494C71.2123 13.7401 71.8752 13.9855 72.6499 13.9855C73.2309 13.9855 73.7151 13.8591 74.1025 13.6063C74.5047 13.3386 74.8027 12.9966 74.9964 12.5802H77.9015C77.6929 13.2791 77.3428 13.9186 76.8512 14.4985C76.3744 15.0636 75.7785 15.5097 75.0634 15.8368C74.3632 16.164 73.5662 16.3275 72.6723 16.3275ZM72.6946 7.0485C71.9944 7.0485 71.3762 7.24925 70.8398 7.65075C70.3035 8.03737 69.9608 8.63218 69.8119 9.43518H75.3316C75.2869 8.70654 75.0187 8.1266 74.5271 7.69536C74.0354 7.26412 73.4246 7.0485 72.6946 7.0485Z" fill="#AA0610"/>
<path d="M86.0343 16.0599V0.446107H89.4311L94.4144 10.3497L99.3308 0.446107H102.728V16.0599H99.8671V5.28638L95.5094 13.8293H93.2524L88.8948 5.28638V16.0599H86.0343Z" fill="#AA0610"/>
<path d="M107.237 3.27889C106.716 3.27889 106.284 3.12275 105.941 2.81048C105.614 2.4982 105.45 2.10414 105.45 1.62829C105.45 1.15245 105.614 0.765818 105.941 0.468412C106.284 0.156137 106.716 0 107.237 0C107.759 0 108.183 0.156137 108.511 0.468412C108.854 0.765818 109.025 1.15245 109.025 1.62829C109.025 2.10414 108.854 2.4982 108.511 2.81048C108.183 3.12275 107.759 3.27889 107.237 3.27889ZM105.807 16.0599V4.99641H108.668V16.0599H105.807Z" fill="#AA0610"/>
<path d="M111.653 16.0599V0H114.514V16.0599H111.653Z" fill="#AA0610"/>
<path d="M122.822 16.3275C121.705 16.3275 120.714 16.0896 119.85 15.6138C118.986 15.1379 118.308 14.4688 117.816 13.6063C117.325 12.7438 117.079 11.7475 117.079 10.6174C117.079 9.47235 117.317 8.45374 117.794 7.56153C118.286 6.66931 118.956 5.97784 119.805 5.48712C120.669 4.98154 121.682 4.72874 122.844 4.72874C123.932 4.72874 124.893 4.96667 125.727 5.44251C126.561 5.91836 127.209 6.57265 127.671 7.40539C128.148 8.22325 128.386 9.13777 128.386 10.149C128.386 10.3125 128.379 10.4835 128.364 10.662C128.364 10.8404 128.357 11.0263 128.342 11.2196H119.917C119.976 12.0821 120.274 12.7587 120.811 13.2494C121.362 13.7401 122.025 13.9855 122.8 13.9855C123.381 13.9855 123.865 13.8591 124.252 13.6063C124.654 13.3386 124.952 12.9966 125.146 12.5802H128.051C127.843 13.2791 127.492 13.9186 127.001 14.4985C126.524 15.0636 125.928 15.5097 125.213 15.8368C124.513 16.164 123.716 16.3275 122.822 16.3275ZM122.844 7.0485C122.144 7.0485 121.526 7.24925 120.989 7.65075C120.453 8.03737 120.111 8.63218 119.962 9.43518H125.481C125.437 8.70654 125.168 8.1266 124.677 7.69536C124.185 7.26412 123.574 7.0485 122.844 7.0485Z" fill="#AA0610"/>
<path d="M135.373 16.3275C134.39 16.3275 133.526 16.1714 132.781 15.8591C132.036 15.532 131.44 15.0859 130.993 14.5208C130.546 13.9557 130.278 13.3014 130.189 12.5579H133.071C133.161 12.9892 133.399 13.3609 133.787 13.6732C134.189 13.9706 134.703 14.1193 135.329 14.1193C135.954 14.1193 136.409 13.9929 136.692 13.7401C136.99 13.4873 137.139 13.1974 137.139 12.8702C137.139 12.3944 136.93 12.0746 136.513 11.9111C136.096 11.7326 135.515 11.5616 134.77 11.3981C134.293 11.294 133.809 11.1676 133.317 11.0189C132.826 10.8702 132.371 10.6843 131.954 10.4612C131.552 10.2233 131.224 9.9259 130.971 9.56901C130.718 9.19725 130.591 8.74371 130.591 8.20838C130.591 7.22695 130.978 6.40165 131.753 5.73248C132.543 5.06332 133.645 4.72874 135.06 4.72874C136.371 4.72874 137.414 5.03358 138.189 5.64326C138.979 6.25294 139.448 7.09311 139.597 8.16377H136.893C136.729 7.34591 136.111 6.93698 135.038 6.93698C134.502 6.93698 134.085 7.04107 133.787 7.24925C133.504 7.45743 133.362 7.71766 133.362 8.02994C133.362 8.35708 133.578 8.61731 134.01 8.81063C134.442 9.00394 135.016 9.18238 135.731 9.34596C136.505 9.5244 137.213 9.72515 137.854 9.9482C138.509 10.1564 139.031 10.4761 139.418 10.9073C139.805 11.3237 139.999 11.9259 139.999 12.7141C140.014 13.3981 139.835 14.0152 139.463 14.5654C139.09 15.1156 138.554 15.5469 137.854 15.8591C137.154 16.1714 136.327 16.3275 135.373 16.3275Z" fill="#AA0610"/>
<path fill-rule="evenodd" clip-rule="evenodd" d="M5.83333 19.3697L-1.0841e-07 19.3697L0 18.3275L5.83333 18.3275L5.83333 19.3697ZM40.8333 19.3697L29.1667 19.3697L29.1667 18.3275L40.8333 18.3275L40.8333 19.3697ZM75.8333 19.3697L64.1667 19.3697L64.1667 18.3275L75.8333 18.3275L75.8333 19.3697ZM110.833 19.3697L99.1667 19.3697L99.1667 18.3275L110.833 18.3275L110.833 19.3697ZM140 19.3697L134.167 19.3697L134.167 18.3275L140 18.3275L140 19.3697Z" fill="#061E5C"/>
<path fill-rule="evenodd" clip-rule="evenodd" d="M140 24.3226L-3.07162e-07 24.3226L0 21.3698L140 21.3698L140 24.3226Z" fill="#061E5C"/>
</svg>
